<svg xmlns="http://www.w3.org/2000/svg" width="800" height="800" viewBox="0 0 800 800">
  <rect width="100%" height="100%" fill="white"/>
  <text x="40" y="30" font-size="22" font-family="Arial">Mission 3 Square Path (run_no_wind)</text>

  <polyline points="172.64,596.88 622.11,596.88 622.11,169.68 172.64,169.68 172.64,596.88" fill="none" stroke="black" stroke-width="3" stroke-dasharray="8 6"/>
  <polyline points="172.64,596.88 172.62,596.90 172.60,596.92 172.58,596.94 172.54,596.99 172.52,597.01 172.50,597.03 172.48,597.05 172.45,597.09 172.43,597.12 172.42,597.14 172.40,597.16 172.37,597.20 172.36,597.23 172.34,597.25 172.33,597.27 172.31,597.32 172.29,597.35 172.28,597.37 172.27,597.39 172.25,597.44 172.24,597.46 172.23,597.49 172.23,597.51 172.21,597.56 172.20,597.59 172.20,597.62 172.19,597.64 172.18,597.69 172.17,597.72 172.16,597.75 172.16,597.78 172.14,597.83 172.14,597.86 172.13,597.89 172.13,597.92 172.12,597.98 172.11,598.00 172.11,598.03 172.10,598.06 172.09,598.12 172.09,598.15 172.08,598.18 172.08,598.21 172.07,598.27 172.07,598.30 172.06,598.34 172.06,598.37 172.05,598.43 172.05,598.46 172.05,598.49 172.04,598.53 172.04,598.59 172.04,598.62 172.03,598.66 172.03,598.69 172.03,598.76 172.03,598.79 172.03,598.82 172.02,598.89 172.02,598.92 172.03,598.95 172.03,598.99 172.03,599.02 172.03,599.09 172.03,599.12 172.03,599.15 172.03,599.19 172.03,599.25 172.04,599.28 172.04,599.31 172.04,599.34 172.04,599.40 172.04,599.43 172.05,599.46 172.05,599.49 172.05,599.55 172.06,599.58 172.06,599.61 172.06,599.63 172.07,599.69 172.07,599.72 172.07,599.75 172.08,599.77 172.08,599.83 172.09,599.85 172.09,599.88 172.09,599.91 172.10,599.96 172.11,599.99 172.11,600.01 172.11,600.04 172.12,600.09 172.13,600.11 172.14,600.14 172.14,600.16 172.16,600.21 172.16,600.24 172.17,600.26 172.18,600.28 172.20,600.33 172.21,600.35 172.22,600.38 172.23,600.40 172.24,600.45 172.25,600.47 172.26,600.49 172.27,600.52 172.29,600.56 172.30,600.58 172.32,600.61 172.33,600.63 172.35,600.67 172.36,600.69 172.37,600.71 172.38,600.73 172.40,600.77 172.42,600.79 172.43,600.81 172.44,600.83 172.47,600.87 172.48,600.89 172.49,600.91 172.50,600.92 172.53,600.96 172.54,600.97 172.56,600.99 172.57,601.01 172.60,601.04 172.61,601.06 172.62,601.07 172.63,601.09 172.66,601.11 172.68,601.13 172.69,601.14 172.72,601.15 172.78,601.18 172.82,601.19 172.87,601.20 172.94,601.21 173.09,601.23 173.20,601.24 173.31,601.25 173.44,601.26 173.75,601.28 173.94,601.29 174.14,601.30 174.36,601.31 174.86,601.33 175.14,601.34 175.45,601.35 175.76,601.37 176.49,601.40 176.88,601.42 177.29,601.44 177.74,601.47 178.69,601.52 179.19,601.55 179.74,601.59 180.30,601.63 181.49,601.71 182.13,601.76 182.80,601.81 183.48,601.87 184.94,601.99 185.71,602.07 186.49,602.14 187.30,602.21 189.03,602.40 189.93,602.50 190.85,602.60 191.79,602.70 193.77,602.95 194.80,603.08 195.84,603.21 196.94,603.37 199.18,603.69 200.34,603.86 201.54,604.05 202.76,604.25 205.27,604.67 206.58,604.91 207.92,605.15 209.27,605.40 212.06,605.94 213.49,606.23 214.95,606.53 216.43,606.84 219.48,607.50 221.04,607.85 222.61,608.21 224.22,608.58 227.50,609.36 229.17,609.76 230.87,610.18 232.59,610.61 236.07,611.50 237.84,611.95 239.64,612.42 241.45,612.89 245.13,613.87 247.00,614.37 248.89,614.88 250.80,615.39 254.66,616.43 256.62,616.96 258.59,617.50 260.58,618.03 264.61,619.11 266.65,619.66 268.69,620.20 270.76,620.75 274.94,621.84 277.04,622.38 279.17,622.92 281.30,623.46 285.60,624.53 287.78,625.05 289.96,625.57 292.15,626.09 296.57,627.10 298.79,627.59 301.03,628.08 303.27,628.57 307.77,629.50 310.04,629.96 312.31,630.41 314.58,630.85 319.16,631.68 321.45,632.09 323.76,632.49 326.06,632.87 330.68,633.60 333.00,633.95 337.64,634.62 339.96,634.93 342.29,635.24 344.61,635.53 346.94,635.80 349.27,636.07 353.92,636.57 356.25,636.81 358.57,637.03 360.90,637.24 365.53,637.62 367.84,637.80 370.15,637.97 372.46,638.12 377.06,638.40 379.36,638.52 381.65,638.63 383.93,638.73 388.49,638.91 390.76,638.98 393.01,639.05 395.26,639.10 399.76,639.19 401.98,639.22 404.20,639.24 406.42,639.25 410.83,639.26 413.01,639.25 415.19,639.23 417.37,639.21 421.67,639.14 423.82,639.09 425.95,639.04 428.07,638.99 432.28,638.86 434.38,638.79 436.45,638.71 438.52,638.63 442.63,638.44 444.66,638.35 446.68,638.24 448.70,638.13 452.71,637.90 454.68,637.78 456.65,637.66 458.61,637.53 462.48,637.26 464.40,637.11 466.31,636.97 468.21,636.82 471.96,636.52 473.81,636.36 475.67,636.20 477.49,636.03 481.11,635.70 482.91,635.52 484.69,635.35 486.45,635.17 489.96,634.80 491.68,634.62 493.39,634.43 495.09,634.24 498.46,633.85 500.12,633.65 501.77,633.45 503.41,633.24 506.64,632.83 508.24,632.62 509.83,632.41 511.41,632.19 514.51,631.76 516.05,631.54 517.58,631.32 519.09,631.10 522.07,630.65 523.55,630.42 525.00,630.19 526.44,629.96 529.30,629.49 530.70,629.26 532.09,629.02 533.47,628.78 536.19,628.30 537.53,628.05 538.87,627.81 540.19,627.56 542.78,627.07 544.06,626.82 545.33,626.56 546.58,626.31 549.05,625.80 550.28,625.55 551.48,625.29 552.67,625.03 555.02,624.51 556.19,624.25 557.33,623.99 558.47,623.72 560.71,623.19 561.81,622.93 562.90,622.66 563.98,622.40 566.10,621.86 567.14,621.59 568.17,621.32 569.20,621.05 571.20,620.51 572.19,620.23 573.17,619.96 574.13,619.69 576.03,619.14 576.96,618.86 577.88,618.58 578.79,618.31 580.58,617.75 581.46,617.47 582.32,617.19 583.18,616.91 584.87,616.35 585.69,616.07 586.51,615.79 587.32,615.51 588.91,614.95 589.69,614.67 590.47,614.39 591.23,614.11 592.73,613.55 593.46,613.27 594.19,612.99 594.91,612.71 596.31,612.15 597.01,611.87 597.68,611.59 598.35,611.31 599.68,610.76 600.32,610.48 600.96,610.20 601.59,609.92 602.82,609.36 603.42,609.09 604.02,608.81 604.61,608.53 605.75,607.98 606.32,607.70 606.87,607.43 607.42,607.15 608.49,606.60 609.02,606.33 609.54,606.06 610.04,605.78 611.04,605.24 611.53,604.97 612.01,604.70 612.48,604.42 613.41,603.89 613.86,603.61 614.30,603.34 614.74,603.08 615.59,602.54 616.01,602.27 616.41,602.00 616.81,601.74 617.58,601.19 617.95,600.91 618.31,600.62 618.66,600.33 619.34,599.71 619.67,599.40 619.99,599.06 620.30,598.71 620.91,597.98 621.21,597.59 621.50,597.18 621.78,596.75 622.35,595.86 622.62,595.38 622.89,594.87 623.16,594.36 623.70,593.25 623.96,592.66 624.22,592.05 624.48,591.42 625.00,590.07 625.26,589.36 625.51,588.64 625.77,587.86 626.29,586.27 626.54,585.44 626.80,584.56 627.06,583.66 627.57,581.80 627.83,580.80 628.09,579.79 628.35,578.76 628.87,576.60 629.13,575.47 629.39,574.32 629.65,573.14 630.18,570.67 630.44,569.40 630.70,568.11 630.96,566.79 631.49,564.04 631.76,562.63 632.02,561.20 632.28,559.71 632.82,556.69 633.08,555.14 633.35,553.55 633.62,551.94 634.15,548.65 634.42,546.95 634.69,545.24 634.96,543.50 635.50,539.96 635.77,538.14 636.04,536.31 636.30,534.47 636.85,530.68 637.12,528.76 637.38,526.82 637.66,524.85 638.20,520.87 638.46,518.85 638.73,516.80 639.00,514.74 639.54,510.58 639.80,508.48 640.07,506.35 640.33,504.22 640.86,499.91 641.12,497.72 641.38,495.53 641.64,493.32 642.15,488.87 642.41,486.63 642.66,484.38 642.91,482.12 643.40,477.56 643.64,475.28 643.88,472.98 644.11,470.67 644.57,466.04 644.80,463.71 645.02,461.38 645.24,459.04 645.66,454.35 645.87,452.00 646.07,449.65 646.27,447.29 646.66,442.57 646.84,440.21 647.02,437.85 647.20,435.48 647.54,430.75 647.70,428.39 647.86,426.03 648.01,423.67 648.30,418.95 648.44,416.60 648.57,414.25 648.70,411.91 648.94,407.23 649.05,404.90 649.15,402.57 649.25,400.25 649.43,395.63 649.51,393.33 649.59,391.03 649.66,388.75 649.78,384.19 649.84,381.93 649.89,379.68 649.93,377.42 650.01,372.97 650.03,370.75 650.06,368.53 650.08,366.34 650.10,361.98 650.11,359.81 650.10,357.64 650.10,355.50 650.07,351.25 650.05,349.13 650.03,347.04 650.00,344.95 649.93,340.81 649.89,338.77 649.85,336.74 649.80,334.71 649.69,330.70 649.63,328.72 649.57,326.75 649.43,322.85 649.36,320.92 649.28,319.00 649.19,317.09 649.11,315.21 648.93,311.47 648.84,309.61 648.74,307.79 648.64,305.97 648.43,302.36 648.33,300.59 648.22,298.83 648.10,297.07 647.87,293.60 647.75,291.89 647.63,290.19 647.50,288.50 647.25,285.17 647.12,283.53 646.99,281.90 646.85,280.28 646.58,277.10 646.44,275.52 646.30,273.95 646.16,272.41 645.87,269.36 645.72,267.85 645.58,266.37 645.43,264.90 645.13,261.98 644.98,260.55 644.82,259.13 644.67,257.72 644.36,254.95 644.20,253.59 644.04,252.23 643.88,250.89 643.57,248.26 643.41,246.95 643.25,245.66 643.08,244.38 642.76,241.87 642.60,240.63 642.43,239.40 642.27,238.19 641.95,235.80 641.78,234.62 641.62,233.47 641.45,232.32 641.12,230.05 640.96,228.95 640.80,227.85 640.64,226.76 640.31,224.62 640.15,223.57 639.98,222.53 639.82,221.49 639.49,219.48 639.33,218.49 639.17,217.50 639.01,216.53 638.68,214.63 638.52,213.68 638.36,212.77 638.20,211.85 637.88,210.05 637.72,209.16 637.56,208.30 637.40,207.44 637.08,205.74 636.92,204.91 636.76,204.10 636.61,203.29 636.29,201.70 636.14,200.93 635.98,200.16 635.82,199.40 635.51,197.92 635.36,197.19 635.20,196.47 635.05,195.77 634.74,194.38 634.59,193.70 634.44,193.03 634.28,192.38 633.98,191.08 633.83,190.45 633.68,189.83 633.53,189.21 633.22,188.00 633.07,187.42 632.92,186.83 632.77,186.26 632.47,185.13 632.33,184.58 632.18,184.04 632.03,183.50 631.73,182.46 631.59,181.95 631.44,181.44 631.29,180.95 631.01,179.99 630.86,179.51 630.72,179.05 630.58,178.59 630.29,177.69 630.15,177.25 630.00,176.83 629.85,176.41 629.54,175.60 629.37,175.21 629.20,174.82 629.02,174.45 628.62,173.72 628.40,173.37 628.17,173.02 627.91,172.69 627.36,172.03 627.06,171.71 626.74,171.39 626.40,171.08 625.64,170.46 625.24,170.16 624.80,169.86 624.34,169.56 623.37,168.98 622.83,168.69 622.27,168.40 621.70,168.11 620.46,167.54 619.80,167.25 619.12,166.97 618.41,166.68 616.90,166.11 616.11,165.83 615.30,165.55 614.45,165.26 612.68,164.70 611.76,164.41 610.79,164.13 609.80,163.85 607.76,163.28 606.68,163.00 605.58,162.72 604.46,162.44 602.15,161.88 600.93,161.60 599.69,161.33 598.43,161.05 595.82,160.51 594.47,160.24 593.09,159.97 591.70,159.70 588.78,159.16 587.29,158.90 585.78,158.64 584.23,158.38 581.05,157.86 579.43,157.61 577.76,157.35 576.08,157.10 572.65,156.60 570.88,156.35 569.09,156.10 567.28,155.86 563.60,155.38 561.71,155.14 559.81,154.90 557.90,154.67 553.97,154.21 551.98,153.98 549.98,153.76 547.96,153.54 543.84,153.10 541.76,152.88 539.66,152.67 537.54,152.46 533.25,152.05 531.08,151.84 528.89,151.64 526.68,151.45 522.23,151.06 519.98,150.87 517.71,150.69 515.44,150.50 510.85,150.15 508.53,149.97 506.20,149.80 503.87,149.63 499.15,149.30 496.78,149.15 494.41,148.99 492.01,148.84 487.21,148.54 484.80,148.40 482.37,148.26 479.95,148.12 475.07,147.86 472.63,147.74 470.18,147.61 467.73,147.50 462.81,147.27 460.35,147.16 457.89,147.05 455.42,146.95 450.49,146.76 448.02,146.67 445.55,146.58 443.08,146.50 438.15,146.33 435.68,146.26 433.22,146.19 430.76,146.12 425.85,145.99 423.40,145.94 420.96,145.88 418.52,145.83 413.65,145.74 411.22,145.70 408.80,145.66 406.39,145.62 401.58,145.56 399.19,145.53 396.80,145.51 394.42,145.49 389.69,145.47 387.34,145.46 384.99,145.45 382.65,145.45 378.02,145.44 375.71,145.44 373.41,145.45 371.13,145.46 366.60,145.48 364.34,145.50 362.10,145.51 359.88,145.53 355.45,145.58 353.26,145.60 351.08,145.63 348.91,145.66 344.61,145.72 342.48,145.76 340.36,145.80 338.25,145.84 334.08,145.93 332.01,145.97 329.95,146.02 327.92,146.07 323.88,146.18 321.87,146.24 319.87,146.30 317.90,146.36 313.99,146.48 312.05,146.55 310.14,146.61 308.23,146.68 304.45,146.82 302.60,146.89 300.75,146.97 298.92,147.04 295.29,147.20 293.50,147.28 291.72,147.36 289.95,147.44 286.48,147.61 284.76,147.69 283.05,147.78 281.36,147.87 278.03,148.04 276.37,148.14 274.74,148.23 273.13,148.32 269.92,148.51 268.35,148.60 266.80,148.70 265.24,148.79 262.17,149.00 260.67,149.09 259.18,149.20 257.69,149.30 254.77,149.50 253.34,149.60 251.91,149.71 250.49,149.82 247.73,150.02 246.36,150.13 244.99,150.24 243.66,150.34 241.02,150.55 239.72,150.66 238.44,150.77 237.17,150.87 234.66,151.09 233.44,151.20 232.23,151.31 231.02,151.41 228.65,151.63 227.49,151.74 226.34,151.85 225.20,151.96 222.98,152.18 221.88,152.29 220.79,152.40 219.70,152.52 217.60,152.74 216.57,152.85 215.54,152.96 214.53,153.07 212.55,153.30 211.57,153.41 210.62,153.52 209.68,153.63 207.81,153.86 206.91,153.97 206.02,154.08 205.13,154.20 203.39,154.42 202.55,154.54 201.71,154.65 200.87,154.76 199.26,154.99 198.46,155.10 197.68,155.21 196.91,155.33 195.40,155.55 194.66,155.66 193.94,155.77 193.22,155.89 191.81,156.11 191.12,156.23 190.44,156.34 189.77,156.45 188.46,156.68 187.83,156.79 187.20,156.91 186.58,157.02 185.37,157.25 184.78,157.36 184.20,157.47 183.62,157.59 182.51,157.82 181.97,157.93 181.43,158.05 180.91,158.16 179.88,158.39 179.38,158.50 178.89,158.61 178.41,158.73 177.46,158.96 177.01,159.07 176.56,159.18 176.12,159.30 175.26,159.53 174.84,159.64 174.43,159.75 174.02,159.87 173.24,160.10 172.87,160.22 172.50,160.35 172.14,160.48 171.46,160.75 171.13,160.90 170.80,161.06 170.49,161.23 169.89,161.60 169.60,161.81 169.32,162.04 169.04,162.28 168.50,162.81 168.24,163.11 167.99,163.42 167.74,163.75 167.24,164.48 167.00,164.88 166.77,165.29 166.53,165.73 166.07,166.69 165.84,167.19 165.61,167.72 165.38,168.29 164.93,169.48 164.70,170.11 164.48,170.75 164.26,171.44 163.81,172.88 163.59,173.63 163.37,174.43 163.15,175.24 162.71,176.94 162.49,177.85 162.28,178.77 162.06,179.72 161.63,181.71 161.42,182.75 161.21,183.82 161.00,184.90 160.57,187.20 160.37,188.38 160.16,189.58 159.96,190.83 159.55,193.41 159.35,194.73 159.15,196.10 158.95,197.49 158.56,200.34 158.37,201.83 158.18,203.33 157.99,204.86 157.62,207.97 157.44,209.58 157.26,211.21 157.08,212.86 156.73,216.24 156.55,217.97 156.38,219.72 156.21,221.48 155.88,225.11 155.71,226.94 155.55,228.79 155.39,230.68 155.07,234.50 154.92,236.44 154.76,238.40 154.61,240.38 154.31,244.39 154.17,246.43 154.02,248.48 153.88,250.54 153.60,254.72 153.47,256.83 153.33,258.96 153.20,261.09 152.94,265.42 152.82,267.60 152.69,269.79 152.57,271.99 152.34,276.44 152.22,278.67 152.11,280.91 152.00,283.17 151.78,287.70 151.68,289.98 151.58,292.27 151.48,294.56 151.30,299.17 151.20,301.48 151.12,303.80 151.03,306.13 150.88,310.78 150.80,313.12 150.73,315.46 150.66,317.80 150.53,322.49 150.47,324.83 150.41,327.18 150.36,329.53 150.26,334.22 150.22,336.57 150.18,338.91 150.14,341.26 150.07,345.94 150.04,348.28 150.01,350.61 149.99,352.93 149.95,357.58 149.93,359.89 149.92,362.20 149.91,364.51 149.90,369.09 149.89,371.38 149.90,373.66 149.90,375.93 149.91,380.44 149.92,382.69 149.93,384.94 149.94,387.16 149.98,391.60 150.00,393.80 150.02,395.99 150.05,398.17 150.10,402.52 150.13,404.67 150.16,406.81 150.20,408.94 150.27,413.17 150.31,415.27 150.35,417.36 150.40,419.45 150.49,423.57 150.54,425.62 150.59,427.66 150.65,429.69 150.75,433.68 150.81,435.67 150.87,437.65 150.93,439.60 151.05,443.48 151.11,445.41 151.17,447.31 151.24,449.20 151.37,452.96 151.44,454.81 151.51,456.65 151.57,458.48 151.72,462.10 151.79,463.88 151.86,465.66 151.94,467.43 152.08,470.90 152.16,472.62 152.24,474.34 152.31,476.02 152.47,479.37 152.55,481.03 152.63,482.68 152.71,484.31 152.87,487.53 152.95,489.13 153.03,490.70 153.11,492.26 153.28,495.35 153.36,496.87 153.45,498.37 153.53,499.87 153.71,502.82 153.79,504.27 153.88,505.72 153.97,507.15 154.14,509.96 154.23,511.35 154.32,512.73 154.40,514.08 154.58,516.76 154.67,518.09 154.76,519.39 154.85,520.69 155.03,523.25 155.12,524.50 155.21,525.74 155.30,526.97 155.48,529.42 155.57,530.61 155.66,531.79 155.76,532.97 155.94,535.27 156.03,536.40 156.13,537.53 156.22,538.64 156.40,540.81 156.49,541.89 156.59,542.95 156.68,543.99 156.87,546.05 156.96,547.07 157.05,548.06 157.14,549.04 157.33,550.99 157.42,551.93 157.51,552.87 157.60,553.80 157.79,555.62 157.88,556.52 157.97,557.40 158.07,558.28 158.25,559.98 158.35,560.82 158.44,561.66 158.54,562.48 158.72,564.09 158.82,564.88 158.92,565.67 159.01,566.43 159.20,567.94 159.30,568.68 159.39,569.41 159.49,570.13 159.68,571.55 159.77,572.23 159.87,572.91 159.97,573.59 160.16,574.91 160.25,575.55 160.35,576.19 160.45,576.82 160.64,578.05 160.74,578.65 160.84,579.25 160.94,579.83 161.13,580.97 161.23,581.53 161.33,582.08 161.42,582.62 161.62,583.69 161.72,584.22 161.82,584.73 161.92,585.23 162.12,586.23 162.22,586.71 162.32,587.19 162.42,587.66 162.61,588.58 162.71,589.02 162.81,589.47 162.92,589.91 163.12,590.75 163.22,591.16 163.32,591.58 163.42,591.97 163.62,592.76 163.72,593.14 163.82,593.51 163.93,593.88 164.13,594.60 164.23,594.95 164.34,595.29 164.44,595.63 164.65,596.29 164.75,596.61 164.86,596.92 164.96,597.24 165.18,597.85 165.28,598.15 165.39,598.45 165.50,598.75 165.71,599.34 165.82,599.63 165.93,599.92 166.04,600.21 166.26,600.78 166.37,601.07 166.49,601.36 166.60,601.64 166.82,602.22 166.94,602.51 167.05,602.80 167.16,603.09 167.39,603.68 167.51,603.97 167.62,604.27 167.74,604.57 167.97,605.18 168.08,605.49 168.20,605.80 168.32,606.12 168.55,606.75 168.67,607.07 168.79,607.39 168.91,607.71 169.14,608.37 169.26,608.69 169.38,609.03 169.50,609.36 169.73,610.03 169.85,610.37 169.97,610.71 170.09,611.05 170.32,611.73 170.44,612.07 170.55,612.41 170.67,612.75 170.90,613.44 171.01,613.78 171.12,614.12 171.24,614.46 171.46,615.14 171.57,615.48 171.68,615.82 171.79,616.16 172.01,616.82 172.12,617.15 172.23,617.48 172.33,617.81 172.55,618.45 172.65,618.77 172.76,619.08 172.87,619.40 173.08,620.01 173.18,620.31 173.29,620.61 173.39,620.91 173.59,621.48 173.70,621.77 173.80,622.05 173.90,622.33 174.10,622.87 174.20,623.14 174.30,623.40 174.40,623.66 174.60,624.16 174.70,624.41 174.79,624.65 174.89,624.89 175.08,625.36 175.17,625.59 175.27,625.81 175.36,626.03 175.55,626.46 175.64,626.67 175.73,626.88 175.83,627.08 176.01,627.47 176.10,627.66 176.19,627.85 176.28,628.03 176.46,628.39 176.55,628.57 176.64,628.74 176.73,628.90 176.90,629.23 176.99,629.39 177.08,629.54 177.16,629.70 177.33,630.00 177.42,630.14 177.50,630.28 177.58,630.42 177.74,630.70 177.82,630.83 177.90,630.96 177.98,631.09 178.13,631.34 178.21,631.46 178.28,631.59 178.35,631.71 178.49,631.94 178.56,632.06 178.63,632.17 178.70,632.28 178.83,632.50 178.90,632.61 178.96,632.72 179.02,632.83 179.15,633.04 179.21,633.14 179.27,633.25 179.32,633.35 179.44,633.56 179.50,633.66 179.55,633.76 179.61,633.86 179.72,634.06 179.77,634.16 179.82,634.26 179.87,634.36 179.97,634.56 180.02,634.66 180.07,634.76 180.12,634.86 180.22,635.06 180.26,635.17 180.31,635.27 180.36,635.37 180.45,635.57 180.50,635.67 180.54,635.77 180.59,635.88 180.68,636.09 180.72,636.19 180.77,636.30 180.82,636.41 180.91,636.62 180.95,636.73 181.00,636.84 181.05,636.95 181.14,637.17 181.18,637.29 181.23,637.40 181.28,637.51 181.37,637.74 181.41,637.86 181.46,637.97 181.51,638.09 181.60,638.32 181.64,638.44 181.69,638.56 181.73,638.68 181.82,638.91 181.87,639.03 181.91,639.15 181.95,639.27 182.04,639.50 182.08,639.62 182.12,639.74 182.16,639.87 182.24,640.10 182.28,640.23 182.32,640.35 182.36,640.47 182.43,640.71 182.47,640.83 182.50,640.95" fill="none" stroke="blue" stroke-width="2"/>

  <circle cx="172.64" cy="596.88" r="5" fill="red"/>
  <text x="180.64" y="588.88" font-size="16" font-family="Arial">A</text>

  <circle cx="622.11" cy="596.88" r="5" fill="red"/>
  <text x="630.11" y="588.88" font-size="16" font-family="Arial">B</text>

  <circle cx="622.11" cy="169.68" r="5" fill="red"/>
  <text x="630.11" y="161.68" font-size="16" font-family="Arial">C</text>

  <circle cx="172.64" cy="169.68" r="5" fill="red"/>
  <text x="180.64" y="161.68" font-size="16" font-family="Arial">D</text>

  <line x1="40" y1="765" x2="100" y2="765" stroke="black" stroke-width="3" stroke-dasharray="8 6"/>
  <text x="110" y="770" font-size="16" font-family="Arial">Ideal path</text>

  <line x1="250" y1="765" x2="310" y2="765" stroke="blue" stroke-width="2"/>
  <text x="320" y="770" font-size="16" font-family="Arial">Actual path</text>
</svg>
