<svg xmlns="http://www.w3.org/2000/svg" width="800" height="800" viewBox="0 0 800 800">
  <rect width="100%" height="100%" fill="white"/>
  <text x="40" y="30" font-size="22" font-family="Arial">Mission 3 Square Path (run_windy)</text>

  <polyline points="166.41,587.15 619.31,587.15 619.31,158.25 166.41,158.25 166.41,587.15" fill="none" stroke="black" stroke-width="3" stroke-dasharray="8 6"/>
  <polyline points="166.41,587.15 166.32,587.18 166.27,587.20 166.23,587.22 166.18,587.24 166.14,587.25 166.05,587.29 166.01,587.31 165.97,587.34 165.89,587.38 165.85,587.40 165.81,587.43 165.77,587.45 165.70,587.51 165.66,587.53 165.63,587.56 165.59,587.59 165.53,587.65 165.49,587.69 165.46,587.72 165.43,587.75 165.40,587.79 165.34,587.86 165.31,587.89 165.28,587.93 165.23,588.00 165.20,588.04 165.17,588.08 165.14,588.12 165.12,588.16 165.06,588.24 165.04,588.28 165.01,588.32 164.96,588.40 164.93,588.44 164.91,588.48 164.88,588.53 164.84,588.61 164.82,588.66 164.79,588.70 164.77,588.75 164.73,588.84 164.70,588.88 164.68,588.93 164.66,588.97 164.64,589.02 164.60,589.11 164.58,589.16 164.57,589.21 164.53,589.31 164.51,589.36 164.50,589.41 164.48,589.46 164.45,589.57 164.44,589.62 164.42,589.67 164.41,589.73 164.39,589.83 164.38,589.89 164.37,589.94 164.36,590.00 164.35,590.11 164.34,590.16 164.33,590.22 164.33,590.27 164.32,590.39 164.32,590.44 164.31,590.50 164.31,590.56 164.31,590.68 164.31,590.73 164.31,590.79 164.31,590.85 164.32,590.97 164.32,591.03 164.32,591.09 164.33,591.15 164.34,591.28 164.35,591.34 164.35,591.40 164.36,591.46 164.38,591.58 164.39,591.65 164.40,591.71 164.41,591.77 164.43,591.90 164.44,591.96 164.45,592.03 164.46,592.09 164.49,592.22 164.50,592.28 164.52,592.35 164.53,592.41 164.55,592.48 164.58,592.61 164.60,592.67 164.61,592.74 164.63,592.80 164.65,592.87 164.68,593.00 164.70,593.06 164.74,593.19 164.75,593.26 164.77,593.32 164.79,593.39 164.83,593.52 164.85,593.58 164.87,593.65 164.89,593.71 164.94,593.84 164.96,593.91 164.98,593.97 165.00,594.04 165.05,594.17 165.07,594.24 165.10,594.30 165.12,594.37 165.17,594.50 165.20,594.56 165.22,594.63 165.25,594.69 165.31,594.82 165.34,594.89 165.36,594.95 165.39,595.01 165.45,595.14 165.48,595.21 165.51,595.27 165.54,595.33 165.61,595.46 165.64,595.52 165.67,595.58 165.71,595.65 165.75,595.71 165.86,595.83 165.93,595.90 166.00,595.96 166.19,596.08 166.30,596.14 166.43,596.20 166.58,596.27 166.92,596.39 167.12,596.45 167.33,596.51 167.56,596.57 168.10,596.69 168.39,596.75 168.71,596.81 169.06,596.87 169.42,596.94 170.21,597.06 170.65,597.12 171.11,597.19 172.08,597.31 172.62,597.38 173.18,597.45 173.76,597.52 174.99,597.66 175.65,597.73 176.33,597.81 177.03,597.88 178.53,598.05 179.31,598.14 180.12,598.23 180.97,598.33 182.73,598.53 183.64,598.63 184.60,598.75 185.58,598.88 187.60,599.13 188.65,599.26 189.74,599.41 190.86,599.57 193.15,599.89 194.36,600.07 195.59,600.26 196.84,600.45 199.43,600.87 200.77,601.10 202.14,601.33 203.52,601.57 206.41,602.10 207.88,602.37 209.38,602.66 210.92,602.96 214.06,603.59 215.65,603.92 217.30,604.26 218.96,604.62 222.33,605.35 224.07,605.73 225.83,606.13 227.60,606.53 231.21,607.36 233.05,607.78 234.91,608.22 236.79,608.66 240.60,609.56 242.53,610.02 244.48,610.49 246.45,610.96 250.45,611.91 252.48,612.40 254.51,612.88 256.58,613.37 260.74,614.35 262.84,614.84 264.97,615.33 267.11,615.82 271.42,616.80 273.60,617.28 275.79,617.76 278.00,618.24 282.44,619.19 284.69,619.65 286.94,620.11 289.20,620.57 293.76,621.46 296.05,621.90 298.35,622.33 300.66,622.75 305.31,623.56 307.64,623.96 309.98,624.36 312.33,624.73 317.04,625.47 319.41,625.82 321.77,626.16 324.14,626.50 328.90,627.13 331.28,627.44 333.66,627.73 336.05,628.01 340.82,628.55 343.21,628.80 345.60,629.04 347.99,629.27 352.76,629.70 355.15,629.90 357.54,630.09 359.91,630.27 362.29,630.44 364.67,630.60 367.05,630.76 371.78,631.03 374.14,631.15 376.50,631.26 381.19,631.46 383.53,631.55 385.87,631.63 388.20,631.70 392.84,631.82 395.15,631.86 397.45,631.90 399.74,631.94 404.30,631.98 406.58,631.99 408.83,632.00 411.08,632.00 415.56,631.98 417.78,631.96 419.98,631.93 422.19,631.90 426.56,631.82 428.72,631.78 430.88,631.73 433.04,631.67 437.29,631.55 439.40,631.48 441.51,631.41 443.59,631.34 447.73,631.17 449.79,631.09 451.82,631.00 453.85,630.91 457.87,630.71 459.88,630.61 461.85,630.51 463.81,630.40 468.75,630.12 470.66,630.01 472.57,629.89 476.36,629.64 478.22,629.51 480.08,629.39 483.76,629.12 485.57,628.99 487.37,628.85 489.16,628.71 492.69,628.42 494.44,628.28 496.17,628.13 497.90,627.98 501.27,627.68 502.94,627.53 504.61,627.37 506.24,627.21 509.49,626.89 511.11,626.73 512.69,626.56 514.27,626.40 517.41,626.06 518.94,625.88 520.47,625.71 521.99,625.53 524.98,625.18 526.46,625.00 527.92,624.82 529.38,624.63 532.23,624.26 533.64,624.07 535.05,623.88 536.42,623.69 539.15,623.31 540.50,623.12 541.85,622.92 543.16,622.73 545.77,622.33 547.07,622.13 548.33,621.93 549.59,621.73 552.08,621.32 553.29,621.11 554.50,620.90 555.70,620.70 558.05,620.28 559.21,620.06 560.36,619.85 561.50,619.64 563.72,619.20 564.81,618.99 565.90,618.77 566.97,618.55 569.07,618.11 570.12,617.89 571.13,617.67 572.14,617.44 574.14,617.00 575.11,616.77 576.07,616.54 577.03,616.32 578.91,615.87 579.83,615.64 580.74,615.41 581.64,615.19 583.41,614.73 584.28,614.50 585.14,614.28 585.99,614.05 587.65,613.59 588.46,613.36 589.27,613.14 590.06,612.91 591.62,612.45 592.39,612.22 593.14,611.99 593.88,611.77 594.62,611.54 596.05,611.08 596.76,610.85 597.45,610.63 598.81,610.17 599.48,609.95 600.14,609.72 600.79,609.50 602.05,609.04 602.67,608.82 603.29,608.59 603.90,608.37 605.08,607.92 605.66,607.70 606.23,607.48 606.79,607.25 607.89,606.81 608.44,606.59 608.96,606.37 609.48,606.15 610.00,605.93 611.01,605.49 611.50,605.27 611.98,605.05 612.93,604.61 613.39,604.39 613.85,604.18 614.30,603.96 615.18,603.53 615.60,603.31 616.03,603.10 616.44,602.88 617.25,602.46 617.64,602.25 618.02,602.03 618.40,601.81 619.13,601.38 619.48,601.15 619.82,600.92 620.15,600.68 620.80,600.18 621.11,599.91 621.41,599.64 621.71,599.35 622.28,598.73 622.56,598.39 622.84,598.04 623.11,597.68 623.64,596.88 623.89,596.46 624.15,596.02 624.41,595.55 624.91,594.55 625.15,594.02 625.40,593.45 625.64,592.87 625.89,592.26 626.37,590.97 626.62,590.28 626.86,589.57 627.35,588.06 627.59,587.27 627.83,586.45 628.07,585.61 628.56,583.84 628.80,582.90 629.04,581.95 629.28,580.97 629.77,578.89 630.02,577.81 630.26,576.71 630.51,575.56 631.01,573.19 631.26,571.97 631.51,570.69 631.76,569.39 632.26,566.72 632.51,565.33 632.77,563.90 633.02,562.46 633.53,559.48 633.78,557.94 634.03,556.38 634.29,554.80 634.80,551.52 635.05,549.85 635.31,548.16 635.56,546.42 636.07,542.89 636.33,541.10 636.58,539.29 636.84,537.44 637.35,533.69 637.60,531.79 637.86,529.84 638.11,527.89 638.62,523.93 638.87,521.90 639.12,519.87 639.38,517.81 639.88,513.65 640.13,511.54 640.38,509.42 640.63,507.29 641.12,502.95 641.36,500.77 641.60,498.57 641.84,496.35 642.32,491.88 642.55,489.63 642.79,487.36 643.02,485.08 643.47,480.50 643.70,478.19 643.92,475.88 644.13,473.55 644.56,468.89 644.77,466.54 644.98,464.19 645.18,461.84 645.57,457.11 645.76,454.74 645.95,452.37 646.13,449.99 646.48,445.23 646.65,442.85 646.82,440.46 646.98,438.08 647.29,433.31 647.43,430.93 647.58,428.54 647.71,426.16 647.97,421.40 648.09,419.03 648.21,416.66 648.32,414.29 648.43,411.93 648.62,407.22 648.71,404.87 648.79,402.53 648.94,397.86 649.01,395.54 649.07,393.22 649.13,390.90 649.23,386.31 649.27,384.03 649.31,381.74 649.34,379.48 649.38,374.97 649.40,372.73 649.41,370.51 649.42,368.29 649.42,366.08 649.42,363.88 649.40,359.53 649.38,357.36 649.34,353.07 649.31,350.95 649.27,348.83 649.23,346.72 649.15,342.56 649.10,340.50 649.04,338.44 648.99,336.41 648.86,332.37 648.80,330.36 648.73,328.38 648.65,326.42 648.49,322.50 648.41,320.56 648.32,318.65 648.23,316.74 648.05,312.96 647.95,311.10 647.85,309.26 647.75,307.42 647.64,305.59 647.43,302.00 647.31,300.21 647.20,298.44 646.97,294.96 646.85,293.24 646.73,291.52 646.61,289.84 646.36,286.49 646.23,284.83 646.11,283.20 645.98,281.58 645.72,278.36 645.59,276.79 645.45,275.23 645.32,273.67 645.05,270.61 644.91,269.10 644.77,267.60 644.63,266.11 644.35,263.18 644.21,261.73 644.06,260.30 643.92,258.87 643.64,256.09 643.49,254.71 643.34,253.34 643.20,251.99 642.91,249.34 642.76,248.02 642.62,246.73 642.47,245.45 642.33,244.18 642.18,242.92 641.89,240.46 641.74,239.24 641.44,236.85 641.30,235.67 641.15,234.51 641.00,233.35 640.85,232.22 640.55,229.98 640.40,228.87 640.26,227.79 639.96,225.65 639.81,224.59 639.66,223.54 639.51,222.51 639.21,220.48 639.06,219.48 638.91,218.50 638.76,217.53 638.47,215.61 638.32,214.68 638.17,213.76 638.03,212.84 637.73,211.05 637.59,210.17 637.44,209.30 637.30,208.43 637.01,206.75 636.86,205.93 636.72,205.10 636.57,204.31 636.29,202.73 636.14,201.95 636.00,201.19 635.86,200.44 635.57,198.96 635.43,198.24 635.29,197.53 635.15,196.83 634.87,195.44 634.72,194.76 634.58,194.10 634.44,193.44 634.16,192.15 634.02,191.52 633.88,190.89 633.74,190.28 633.46,189.08 633.32,188.49 633.18,187.91 633.04,187.35 632.76,186.23 632.62,185.68 632.49,185.15 632.35,184.63 632.07,183.59 631.94,183.09 631.80,182.59 631.67,182.10 631.53,181.62 631.26,180.68 631.13,180.22 630.99,179.76 630.73,178.87 630.59,178.44 630.45,178.02 630.31,177.60 630.01,176.80 629.85,176.41 629.69,176.03 629.51,175.66 629.12,174.94 628.91,174.59 628.68,174.25 628.43,173.92 628.17,173.59 627.58,172.94 627.26,172.63 626.92,172.32 626.17,171.71 625.77,171.40 625.34,171.10 624.89,170.80 623.90,170.21 623.38,169.92 622.84,169.62 622.26,169.33 621.03,168.74 620.39,168.44 619.71,168.14 619.00,167.85 618.28,167.55 616.77,166.95 615.96,166.65 615.13,166.35 613.41,165.75 612.50,165.45 611.57,165.14 610.61,164.84 608.61,164.23 607.57,163.93 606.50,163.62 605.41,163.32 603.13,162.71 601.95,162.40 600.75,162.10 599.51,161.80 596.95,161.19 595.64,160.89 594.28,160.59 592.90,160.29 591.50,159.99 588.60,159.40 587.11,159.10 585.59,158.81 584.06,158.52 580.87,157.95 579.25,157.66 577.61,157.38 574.24,156.83 572.52,156.56 570.77,156.29 569.01,156.02 565.39,155.49 563.56,155.24 561.70,154.98 559.81,154.73 555.98,154.23 554.04,153.98 552.07,153.74 550.08,153.50 546.05,153.03 544.00,152.80 541.94,152.57 539.86,152.35 535.64,151.91 533.50,151.70 531.36,151.49 529.19,151.28 524.81,150.88 522.60,150.68 520.38,150.49 518.13,150.30 513.61,149.94 511.34,149.76 509.05,149.58 506.75,149.41 502.12,149.09 499.79,148.93 497.45,148.78 495.11,148.63 490.39,148.34 488.01,148.20 485.63,148.07 483.25,147.94 478.46,147.69 476.06,147.57 473.65,147.45 471.23,147.34 466.40,147.13 463.97,147.03 461.55,146.94 459.12,146.84 454.26,146.67 451.83,146.59 449.40,146.52 446.97,146.44 442.10,146.31 439.68,146.25 437.25,146.19 434.82,146.14 429.97,146.04 427.56,146.00 425.14,145.96 422.73,145.93 420.32,145.90 415.53,145.85 413.14,145.83 410.75,145.81 406.01,145.79 403.64,145.78 401.27,145.78 398.93,145.78 394.25,145.79 391.91,145.80 389.60,145.81 387.29,145.83 382.69,145.87 380.41,145.89 378.14,145.92 375.87,145.95 371.37,146.02 369.14,146.05 366.92,146.09 364.70,146.14 360.32,146.23 358.14,146.28 355.96,146.33 353.80,146.39 349.52,146.50 347.40,146.56 345.28,146.62 343.19,146.68 341.11,146.75 336.97,146.89 334.93,146.96 332.90,147.03 328.87,147.18 326.89,147.26 324.91,147.33 322.94,147.42 319.06,147.58 317.14,147.66 315.22,147.75 313.32,147.84 309.58,148.01 307.72,148.11 305.87,148.20 304.05,148.29 302.24,148.38 298.65,148.58 296.89,148.67 295.13,148.77 291.65,148.97 289.92,149.07 288.22,149.17 286.53,149.27 283.18,149.48 281.54,149.59 279.91,149.69 278.29,149.80 275.09,150.01 273.52,150.12 271.95,150.23 270.39,150.34 267.35,150.55 265.84,150.66 264.34,150.77 262.87,150.88 259.96,151.10 258.52,151.21 257.11,151.32 255.70,151.43 254.31,151.54 251.56,151.76 250.22,151.87 248.88,151.98 247.54,152.09 244.95,152.30 243.67,152.41 242.39,152.53 239.88,152.75 238.65,152.85 237.43,152.96 236.22,153.07 233.86,153.29 232.69,153.39 231.53,153.50 230.40,153.61 228.16,153.82 227.05,153.93 225.98,154.03 224.90,154.13 222.78,154.35 221.75,154.45 220.73,154.55 219.72,154.65 217.73,154.85 216.75,154.95 215.79,155.06 214.83,155.16 212.97,155.36 212.05,155.46 211.14,155.56 210.25,155.65 208.50,155.85 207.63,155.95 206.77,156.05 205.94,156.15 204.29,156.34 203.47,156.44 202.68,156.54 201.89,156.63 200.34,156.83 199.59,156.92 198.85,157.02 198.11,157.12 196.67,157.31 195.97,157.41 195.27,157.50 194.58,157.60 193.24,157.79 192.58,157.89 191.92,157.99 191.29,158.08 190.04,158.28 189.42,158.37 188.82,158.47 188.23,158.56 187.05,158.76 186.49,158.86 185.93,158.95 185.37,159.05 184.28,159.25 183.75,159.35 183.23,159.45 182.71,159.55 181.70,159.75 181.21,159.85 180.73,159.95 180.24,160.05 179.32,160.26 178.86,160.36 178.41,160.46 177.98,160.56 177.12,160.77 176.70,160.87 176.29,160.98 175.88,161.08 175.09,161.29 174.71,161.39 174.33,161.50 173.96,161.60 173.24,161.82 172.89,161.92 172.54,162.03 172.21,162.15 171.57,162.39 171.25,162.51 170.95,162.65 170.65,162.80 170.08,163.12 169.81,163.30 169.53,163.49 169.27,163.69 168.77,164.15 168.52,164.40 168.28,164.68 168.04,164.97 167.81,165.28 167.35,165.96 167.13,166.33 166.91,166.72 166.47,167.56 166.26,168.02 166.04,168.50 165.83,169.00 165.42,170.08 165.21,170.66 165.00,171.25 164.80,171.88 164.39,173.20 164.19,173.89 163.98,174.62 163.78,175.37 163.38,176.94 163.18,177.75 162.98,178.60 162.78,179.48 162.39,181.29 162.20,182.25 162.00,183.23 161.81,184.24 161.61,185.26 161.23,187.41 161.04,188.52 160.85,189.66 160.47,192.03 160.28,193.24 160.10,194.48 159.91,195.77 159.54,198.40 159.36,199.75 159.18,201.14 159.00,202.56 158.83,203.99 158.48,206.95 158.30,208.47 158.13,210.01 157.79,213.17 157.63,214.79 157.46,216.42 157.30,218.08 156.98,221.46 156.82,223.19 156.66,224.94 156.51,226.70 156.20,230.31 156.05,232.14 155.90,233.99 155.75,235.86 155.46,239.66 155.32,241.58 155.18,243.53 155.04,245.49 154.77,249.46 154.63,251.48 154.50,253.51 154.37,255.55 154.12,259.68 153.99,261.77 153.87,263.87 153.75,265.98 153.51,270.25 153.39,272.40 153.28,274.56 153.17,276.74 152.95,281.12 152.85,283.32 152.75,285.53 152.64,287.75 152.45,292.21 152.35,294.46 152.26,296.71 152.17,298.96 152.00,303.49 151.92,305.76 151.84,308.04 151.76,310.32 151.61,314.90 151.54,317.19 151.47,319.49 151.40,321.79 151.28,326.39 151.22,328.69 151.16,330.99 151.11,333.29 151.01,337.90 150.97,340.20 150.92,342.50 150.88,344.80 150.81,349.39 150.78,351.67 150.75,353.96 150.72,356.24 150.67,360.80 150.65,363.07 150.64,365.34 150.62,367.60 150.60,372.10 150.59,374.34 150.58,376.58 150.58,378.82 150.58,383.24 150.58,385.45 150.59,387.65 150.60,389.84 150.62,394.19 150.63,396.35 150.65,398.50 150.66,400.64 150.71,404.90 150.73,407.01 150.76,409.11 150.78,411.20 150.85,415.35 150.88,417.40 150.92,419.45 150.96,421.49 151.04,425.52 151.08,427.52 151.13,429.52 151.18,431.51 151.28,435.42 151.33,437.37 151.39,439.31 151.44,441.22 151.56,445.03 151.62,446.92 151.68,448.78 151.74,450.63 151.80,452.47 151.93,456.12 152.00,457.92 152.07,459.71 152.20,463.25 152.27,465.00 152.34,466.74 152.42,468.47 152.56,471.86 152.63,473.55 152.71,475.23 152.78,476.88 152.93,480.15 153.00,481.77 153.08,483.36 153.15,484.95 153.30,488.10 153.38,489.66 153.46,491.19 153.53,492.71 153.69,495.74 153.76,497.21 153.83,498.68 153.91,500.15 154.06,503.02 154.14,504.44 154.21,505.85 154.29,507.25 154.44,509.98 154.52,511.34 154.59,512.69 154.67,514.00 154.82,516.62 154.89,517.91 154.97,519.18 155.04,520.44 155.19,522.93 155.27,524.15 155.34,525.36 155.42,526.56 155.50,527.75 155.65,530.08 155.72,531.23 155.80,532.37 155.96,534.62 156.03,535.73 156.11,536.82 156.19,537.91 156.34,540.03 156.42,541.08 156.50,542.12 156.57,543.14 156.73,545.16 156.81,546.15 156.88,547.13 156.96,548.09 157.11,550.00 157.19,550.93 157.26,551.85 157.34,552.76 157.49,554.56 157.57,555.43 157.65,556.31 157.72,557.17 157.87,558.85 157.95,559.68 158.03,560.50 158.10,561.30 158.17,562.10 158.33,563.67 158.40,564.45 158.48,565.20 158.62,566.70 158.70,567.44 158.77,568.15 158.84,568.87 158.99,570.27 159.06,570.96 159.13,571.63 159.20,572.30 159.35,573.62 159.42,574.26 159.49,574.89 159.56,575.52 159.70,576.74 159.77,577.34 159.85,577.94 159.91,578.52 160.05,579.66 160.12,580.22 160.19,580.77 160.26,581.31 160.40,582.37 160.47,582.89 160.54,583.40 160.60,583.90 160.74,584.90 160.81,585.38 160.88,585.86 160.95,586.33 161.09,587.26 161.15,587.71 161.22,588.15 161.29,588.59 161.43,589.44 161.50,589.86 161.57,590.28 161.64,590.68 161.71,591.07 161.84,591.86 161.91,592.23 161.98,592.61 162.12,593.34 162.19,593.69 162.25,594.04 162.32,594.39 162.46,595.07 162.53,595.40 162.60,595.72 162.67,596.05 162.80,596.68 162.87,596.99 162.94,597.31 163.01,597.62 163.15,598.23 163.22,598.54 163.30,598.85 163.37,599.15 163.51,599.76 163.58,600.07 163.65,600.37 163.73,600.68 163.88,601.30 163.95,601.61 164.02,601.92 164.10,602.23 164.25,602.87 164.32,603.19 164.40,603.51 164.48,603.84 164.63,604.50 164.71,604.83 164.79,605.17 164.86,605.51 165.02,606.19 165.10,606.53 165.18,606.88 165.26,607.23 165.42,607.93 165.50,608.28 165.58,608.64 165.66,609.00 165.83,609.71 165.92,610.07 166.00,610.43 166.08,610.79 166.25,611.51 166.34,611.87 166.43,612.23 166.51,612.59 166.69,613.32 166.78,613.67 166.87,614.03 166.95,614.39 167.13,615.10 167.22,615.45 167.31,615.80 167.40,616.15 167.59,616.84 167.68,617.18 167.77,617.52 167.87,617.86 168.05,618.53 168.15,618.86 168.24,619.18 168.34,619.50 168.53,620.13 168.63,620.44 168.72,620.75 168.82,621.05 169.01,621.64 169.11,621.93 169.20,622.21 169.30,622.49 169.49,623.04 169.58,623.31 169.68,623.57 169.78,623.83 169.97,624.33 170.06,624.57 170.16,624.81 170.25,625.05 170.44,625.51 170.54,625.74 170.63,625.96 170.72,626.17 170.91,626.59 171.00,626.79 171.09,626.99 171.18,627.19 171.36,627.57 171.45,627.75 171.54,627.93 171.63,628.11 171.81,628.45 171.89,628.61 171.98,628.78 172.06,628.93 172.15,629.09 172.32,629.39 172.40,629.54 172.48,629.68 172.64,629.96 172.72,630.10 172.79,630.23 172.87,630.36 173.02,630.61 173.09,630.73 173.17,630.85 173.24,630.97 173.38,631.20 173.45,631.31 173.52,631.42 173.59,631.53 173.72,631.74 173.79,631.84 173.85,631.94 173.91,632.04 174.04,632.24 174.10,632.34 174.16,632.43 174.22,632.53 174.33,632.72 174.39,632.81 174.44,632.90 174.50,632.99 174.60,633.17 174.65,633.26 174.71,633.35 174.75,633.44 174.85,633.62 174.90,633.70 174.95,633.79 174.99,633.88 175.04,633.97 175.13,634.15 175.17,634.24 175.22,634.33 175.30,634.51 175.35,634.60 175.39,634.69 175.43,634.78 175.51,634.97 175.55,635.06 175.60,635.15 175.64,635.24 175.72,635.43 175.76,635.53 175.80,635.62 175.83,635.72 175.91,635.92 175.95,636.02 175.99,636.12 176.03,636.23 176.10,636.43 176.14,636.53 176.18,636.64 176.21,636.75 176.29,636.96 176.32,637.07 176.36,637.18 176.39,637.28 176.47,637.51 176.50,637.62 176.54,637.73 176.58,637.85 176.65,638.07 176.69,638.19 176.73,638.31 176.77,638.42 176.84,638.66 176.88,638.77 176.92,638.89 176.96,639.01 177.04,639.24 177.08,639.37 177.12,639.49 177.16,639.61" fill="none" stroke="blue" stroke-width="2"/>

  <circle cx="166.41" cy="587.15" r="5" fill="red"/>
  <text x="174.41" y="579.15" font-size="16" font-family="Arial">A</text>

  <circle cx="619.31" cy="587.15" r="5" fill="red"/>
  <text x="627.31" y="579.15" font-size="16" font-family="Arial">B</text>

  <circle cx="619.31" cy="158.25" r="5" fill="red"/>
  <text x="627.31" y="150.25" font-size="16" font-family="Arial">C</text>

  <circle cx="166.41" cy="158.25" r="5" fill="red"/>
  <text x="174.41" y="150.25" font-size="16" font-family="Arial">D</text>

  <line x1="40" y1="765" x2="100" y2="765" stroke="black" stroke-width="3" stroke-dasharray="8 6"/>
  <text x="110" y="770" font-size="16" font-family="Arial">Ideal path</text>

  <line x1="250" y1="765" x2="310" y2="765" stroke="blue" stroke-width="2"/>
  <text x="320" y="770" font-size="16" font-family="Arial">Actual path</text>
</svg>
